# xmcd
#
# Track frame offsets: 
#        150
#        16686
#        35722
#        45396
#        60431
#        75133
#        89383
#        105577
#        122916
#        137450
#
# Disc length: 2004 seconds
#
# Revision: 0
# Processed by: cddbd v1.5.2PL0 Copyright (c) Steve Scherf et al.
# Submitted via: ExactAudioCopy v1.0b1
#
DISCID=6b07d20a
DTITLE=Chris LeDoux - Wild And Wooly
DYEAR=1986
DGENRE=Country
TTITLE0=The Real Thing
TTITLE1=Little Long Haired Outlaw
TTITLE2=A Little Money Honey
TTITLE3=I Do It For Me
TTITLE4=Wild And Wooly
TTITLE5=Born In Mississippi
TTITLE6=Running Through The Rain
TTITLE7=I Believe In America
TTITLE8=Cowboy Songs
TTITLE9=Foggy Mountain Breakdown
EXTD=
EXTT0=
EXTT1=
EXTT2=
EXTT3=
EXTT4=
EXTT5=
EXTT6=
EXTT7=
EXTT8=
EXTT9=
PLAYORDER=
